<svg xmlns="http://www.w3.org/2000/svg" xmlns:xlink="http://www.w3.org/1999/xlink" width="1920" zoomAndPan="magnify" viewBox="0 0 1440 809.999993" height="1080" preserveAspectRatio="xMidYMid meet" version="1.0"><defs><g/><clipPath id="3f6e1ff8c8"><path d="M 56 248 L 1035 248 L 1035 325.761719 L 56 325.761719 Z M 56 248 " clip-rule="nonzero"/></clipPath><clipPath id="4001873d68"><path d="M 276 17 L 314 17 L 314 77.761719 L 276 77.761719 Z M 276 17 " clip-rule="nonzero"/></clipPath><clipPath id="0fdd354820"><path d="M 413 17 L 451 17 L 451 77.761719 L 413 77.761719 Z M 413 17 " clip-rule="nonzero"/></clipPath><clipPath id="a45726715f"><path d="M 797 17 L 835 17 L 835 77.761719 L 797 77.761719 Z M 797 17 " clip-rule="nonzero"/></clipPath><clipPath id="ea9fd2ff6e"><rect x="0" width="979" y="0" height="78"/></clipPath><clipPath id="51e0b34f83"><path d="M 457 100 L 1192.921875 100 L 1192.921875 247 L 457 247 Z M 457 100 " clip-rule="nonzero"/></clipPath><clipPath id="fbaa0d2d47"><rect x="0" width="736" y="0" height="147"/></clipPath><clipPath id="163d60ec61"><path d="M 0.839844 103 L 155 103 L 155 262 L 0.839844 262 Z M 0.839844 103 " clip-rule="nonzero"/></clipPath><clipPath id="e6229da83b"><rect x="0" width="155" y="0" height="159"/></clipPath><clipPath id="3b31fd0381"><path d="M 118 0.558594 L 171 0.558594 L 171 289 L 118 289 Z M 118 0.558594 " clip-rule="nonzero"/></clipPath><clipPath id="6d252502c5"><rect x="0" width="53" y="0" height="289"/></clipPath><clipPath id="bb1d8d9035"><path d="M 5 0.121094 L 74 0.121094 L 74 113 L 5 113 Z M 5 0.121094 " clip-rule="nonzero"/></clipPath><clipPath id="93c131fea8"><path d="M 83 0.121094 L 155 0.121094 L 155 113 L 83 113 Z M 83 0.121094 " clip-rule="nonzero"/></clipPath><clipPath id="259734eaa5"><path d="M 162 0.121094 L 192 0.121094 L 192 113 L 162 113 Z M 162 0.121094 " clip-rule="nonzero"/></clipPath><clipPath id="6e151ad43b"><path d="M 202 0.121094 L 269 0.121094 L 269 113 L 202 113 Z M 202 0.121094 " clip-rule="nonzero"/></clipPath><clipPath id="d36de37140"><rect x="0" width="278" y="0" height="159"/></clipPath><clipPath id="5db267d8dc"><rect x="0" width="1193" y="0" height="326"/></clipPath></defs><rect x="-144" width="1728" fill="#ffffff" y="-80.999999" height="971.999992" fill-opacity="1"/><rect x="-144" width="1728" fill="#000000" y="-80.999999" height="971.999992" fill-opacity="1"/><g transform="matrix(1, 0, 0, 1, 129, 226)"><g clip-path="url(#5db267d8dc)"><g clip-path="url(#3f6e1ff8c8)"><g transform="matrix(1, 0, 0, 1, 56, 248)"><g clip-path="url(#ea9fd2ff6e)"><g fill="#ffffff" fill-opacity="1"><g transform="translate(2.010434, 60.494264)"><g><path d="M 47.9375 -43.40625 C 47.9375 -40.601562 47.257812 -38.164062 45.90625 -36.09375 C 44.5625 -34.019531 42.648438 -32.414062 40.171875 -31.28125 C 43.953125 -29.9375 46.648438 -28.101562 48.265625 -25.78125 C 49.878906 -23.46875 50.6875 -20.585938 50.6875 -17.140625 C 50.6875 -13.847656 49.878906 -10.894531 48.265625 -8.28125 C 46.648438 -5.664062 44.359375 -3.628906 41.390625 -2.171875 C 38.429688 -0.722656 35.0625 0 31.28125 0 L 5.984375 0 L 5.984375 -58.046875 L 31.53125 -58.046875 C 36.488281 -58.046875 40.460938 -56.695312 43.453125 -54 C 46.441406 -51.3125 47.9375 -47.78125 47.9375 -43.40625 Z M 40.09375 -42.765625 C 40.09375 -45.671875 39.132812 -47.820312 37.21875 -49.21875 C 35.3125 -50.625 32.335938 -51.328125 28.296875 -51.328125 L 13.828125 -51.328125 L 13.828125 -33.46875 L 27.8125 -33.46875 C 31.75 -33.46875 34.78125 -34.140625 36.90625 -35.484375 C 39.03125 -36.835938 40.09375 -39.265625 40.09375 -42.765625 Z M 42.84375 -17.296875 C 42.84375 -23.816406 38.425781 -27.078125 29.59375 -27.078125 L 13.828125 -27.078125 L 13.828125 -6.703125 L 30.875 -6.703125 C 34.65625 -6.703125 37.59375 -7.617188 39.6875 -9.453125 C 41.789062 -11.285156 42.84375 -13.898438 42.84375 -17.296875 Z M 42.84375 -17.296875 "/></g></g></g><g fill="#ffffff" fill-opacity="1"><g transform="translate(55.916441, 60.494264)"><g><path d="M 23.125 -4.9375 C 24.957031 -4.9375 26.679688 -5.328125 28.296875 -6.109375 C 29.910156 -6.890625 31.226562 -7.925781 32.25 -9.21875 C 33.28125 -10.507812 33.875 -11.859375 34.03125 -13.265625 L 41.15625 -13.265625 C 40.125 -8.734375 38.046875 -5.1875 34.921875 -2.625 C 31.796875 -0.0625 27.675781 1.21875 22.5625 1.21875 C 18.457031 1.21875 14.953125 0.300781 12.046875 -1.53125 C 9.140625 -3.363281 6.941406 -5.882812 5.453125 -9.09375 C 3.972656 -12.300781 3.234375 -15.953125 3.234375 -20.046875 C 3.234375 -27.210938 5 -32.910156 8.53125 -37.140625 C 12.0625 -41.378906 17.0625 -43.5 23.53125 -43.5 C 29.34375 -43.5 33.828125 -41.34375 36.984375 -37.03125 C 40.140625 -32.71875 41.71875 -26.65625 41.71875 -18.84375 L 10.828125 -18.84375 C 10.828125 -14.3125 11.863281 -10.859375 13.9375 -8.484375 C 16.019531 -6.117188 19.082031 -4.9375 23.125 -4.9375 Z M 22.5625 -37.109375 C 20.507812 -37.109375 18.59375 -36.539062 16.8125 -35.40625 C 15.03125 -34.28125 13.585938 -32.742188 12.484375 -30.796875 C 11.378906 -28.859375 10.828125 -26.757812 10.828125 -24.5 L 34.359375 -24.5 C 33.710938 -32.90625 29.78125 -37.109375 22.5625 -37.109375 Z M 22.5625 -37.109375 "/></g></g></g><g fill="#ffffff" fill-opacity="1"><g transform="translate(100.851566, 60.494264)"><g><path d="M 5.421875 0 L 5.421875 -58.046875 L 12.53125 -58.046875 L 12.53125 0 Z M 5.421875 0 "/></g></g></g><g fill="#ffffff" fill-opacity="1"><g transform="translate(118.793295, 60.494264)"><g><path d="M 23.125 -4.9375 C 24.957031 -4.9375 26.679688 -5.328125 28.296875 -6.109375 C 29.910156 -6.890625 31.226562 -7.925781 32.25 -9.21875 C 33.28125 -10.507812 33.875 -11.859375 34.03125 -13.265625 L 41.15625 -13.265625 C 40.125 -8.734375 38.046875 -5.1875 34.921875 -2.625 C 31.796875 -0.0625 27.675781 1.21875 22.5625 1.21875 C 18.457031 1.21875 14.953125 0.300781 12.046875 -1.53125 C 9.140625 -3.363281 6.941406 -5.882812 5.453125 -9.09375 C 3.972656 -12.300781 3.234375 -15.953125 3.234375 -20.046875 C 3.234375 -27.210938 5 -32.910156 8.53125 -37.140625 C 12.0625 -41.378906 17.0625 -43.5 23.53125 -43.5 C 29.34375 -43.5 33.828125 -41.34375 36.984375 -37.03125 C 40.140625 -32.71875 41.71875 -26.65625 41.71875 -18.84375 L 10.828125 -18.84375 C 10.828125 -14.3125 11.863281 -10.859375 13.9375 -8.484375 C 16.019531 -6.117188 19.082031 -4.9375 23.125 -4.9375 Z M 22.5625 -37.109375 C 20.507812 -37.109375 18.59375 -36.539062 16.8125 -35.40625 C 15.03125 -34.28125 13.585938 -32.742188 12.484375 -30.796875 C 11.378906 -28.859375 10.828125 -26.757812 10.828125 -24.5 L 34.359375 -24.5 C 33.710938 -32.90625 29.78125 -37.109375 22.5625 -37.109375 Z M 22.5625 -37.109375 "/></g></g></g><g fill="#ffffff" fill-opacity="1"><g transform="translate(163.72842, 60.494264)"><g><path d="M 11.96875 -5.90625 L 37.921875 -5.90625 L 37.921875 0 L 2.5 0 L 2.5 -5.578125 L 27.96875 -36.375 L 4.453125 -36.375 L 4.453125 -42.28125 L 37.1875 -42.28125 L 37.1875 -36.453125 Z M 11.96875 -5.90625 "/></g></g></g><g fill="#ffffff" fill-opacity="1"><g transform="translate(204.137728, 60.494264)"><g><path d="M 40.5 -4.84375 C 41.257812 -4.84375 42.039062 -4.953125 42.84375 -5.171875 L 42.84375 0 C 41.226562 0.539062 39.910156 0.8125 38.890625 0.8125 C 36.566406 0.8125 34.769531 0.3125 33.5 -0.6875 C 32.238281 -1.6875 31.554688 -3.34375 31.453125 -5.65625 C 27.410156 -1.070312 22.34375 1.21875 16.25 1.21875 C 12.3125 1.21875 9.101562 0.0859375 6.625 -2.171875 C 4.144531 -4.441406 2.90625 -7.382812 2.90625 -11 C 2.90625 -14.65625 3.984375 -17.640625 6.140625 -19.953125 C 8.296875 -22.273438 11.476562 -23.707031 15.6875 -24.25 L 27.484375 -25.703125 C 28.773438 -25.867188 29.71875 -26.328125 30.3125 -27.078125 C 30.90625 -27.835938 31.203125 -29.023438 31.203125 -30.640625 C 31.203125 -35.273438 27.890625 -37.59375 21.265625 -37.59375 C 18.347656 -37.59375 16.09375 -36.945312 14.5 -35.65625 C 12.914062 -34.363281 11.9375 -32.285156 11.5625 -29.421875 L 5.015625 -29.421875 C 5.117188 -33.953125 6.597656 -37.429688 9.453125 -39.859375 C 12.316406 -42.285156 16.523438 -43.5 22.078125 -43.5 C 26.816406 -43.5 30.679688 -42.5 33.671875 -40.5 C 36.660156 -38.507812 38.15625 -35.546875 38.15625 -31.609375 L 38.15625 -7.1875 C 38.15625 -6.488281 38.34375 -5.921875 38.71875 -5.484375 C 39.101562 -5.054688 39.695312 -4.84375 40.5 -4.84375 Z M 31.046875 -14.625 L 31.046875 -21.578125 C 30.398438 -21.046875 29.363281 -20.617188 27.9375 -20.296875 C 26.507812 -19.972656 23.285156 -19.457031 18.265625 -18.75 C 15.679688 -18.375 13.703125 -17.644531 12.328125 -16.5625 C 10.953125 -15.488281 10.265625 -13.957031 10.265625 -11.96875 C 10.265625 -7.113281 12.828125 -4.6875 17.953125 -4.6875 C 20.160156 -4.6875 22.273438 -5.128906 24.296875 -6.015625 C 26.316406 -6.910156 27.945312 -8.125 29.1875 -9.65625 C 30.425781 -11.195312 31.046875 -12.851562 31.046875 -14.625 Z M 31.046875 -14.625 "/></g></g></g><g fill="#ffffff" fill-opacity="1"><g transform="translate(249.072853, 60.494264)"><g/></g></g><g clip-path="url(#4001873d68)"><g fill="#ffffff" fill-opacity="1"><g transform="translate(271.540432, 60.494264)"><g><path d="M 41.796875 -22.5625 C 41.796875 -18.132812 41.109375 -14.128906 39.734375 -10.546875 C 38.359375 -6.960938 36.28125 -4.101562 33.5 -1.96875 C 30.726562 0.15625 27.347656 1.21875 23.359375 1.21875 C 20.609375 1.21875 18.289062 0.691406 16.40625 -0.359375 C 14.519531 -1.410156 13.039062 -2.773438 11.96875 -4.453125 L 11.796875 -4.453125 L 11.796875 16.734375 L 4.6875 16.734375 L 4.6875 -42.28125 L 11.40625 -42.28125 L 11.40625 -36.296875 L 11.5625 -36.296875 C 13.445312 -38.992188 15.375 -40.867188 17.34375 -41.921875 C 19.3125 -42.972656 21.585938 -43.5 24.171875 -43.5 C 27.734375 -43.5 30.847656 -42.59375 33.515625 -40.78125 C 36.179688 -38.976562 38.226562 -36.5 39.65625 -33.34375 C 41.082031 -30.195312 41.796875 -26.601562 41.796875 -22.5625 Z M 23.046875 -4.9375 C 26.597656 -4.9375 29.382812 -6.40625 31.40625 -9.34375 C 33.425781 -12.28125 34.4375 -16.332031 34.4375 -21.5 C 34.4375 -27 33.425781 -30.972656 31.40625 -33.421875 C 29.382812 -35.878906 26.515625 -37.109375 22.796875 -37.109375 C 15.253906 -37.109375 11.484375 -31.097656 11.484375 -19.078125 C 11.484375 -14.660156 12.570312 -11.195312 14.75 -8.6875 C 16.9375 -6.1875 19.703125 -4.9375 23.046875 -4.9375 Z M 23.046875 -4.9375 "/></g></g></g></g><g fill="#ffffff" fill-opacity="1"><g transform="translate(316.475557, 60.494264)"><g><path d="M 13.34375 -24.171875 L 13.34375 0 L 6.21875 0 L 6.21875 -42.28125 L 12.9375 -42.28125 L 12.9375 -35.25 L 13.09375 -35.25 C 14.601562 -37.882812 16.3125 -39.914062 18.21875 -41.34375 C 20.132812 -42.78125 22.390625 -43.5 24.984375 -43.5 C 25.785156 -43.5 26.40625 -43.414062 26.84375 -43.25 L 26.84375 -35.890625 L 24.09375 -35.890625 C 22.3125 -35.890625 20.597656 -35.472656 18.953125 -34.640625 C 17.304688 -33.804688 15.957031 -32.515625 14.90625 -30.765625 C 13.863281 -29.015625 13.34375 -26.816406 13.34375 -24.171875 Z M 13.34375 -24.171875 "/></g></g></g><g fill="#ffffff" fill-opacity="1"><g transform="translate(343.388135, 60.494264)"><g><path d="M 40.5 -4.84375 C 41.257812 -4.84375 42.039062 -4.953125 42.84375 -5.171875 L 42.84375 0 C 41.226562 0.539062 39.910156 0.8125 38.890625 0.8125 C 36.566406 0.8125 34.769531 0.3125 33.5 -0.6875 C 32.238281 -1.6875 31.554688 -3.34375 31.453125 -5.65625 C 27.410156 -1.070312 22.34375 1.21875 16.25 1.21875 C 12.3125 1.21875 9.101562 0.0859375 6.625 -2.171875 C 4.144531 -4.441406 2.90625 -7.382812 2.90625 -11 C 2.90625 -14.65625 3.984375 -17.640625 6.140625 -19.953125 C 8.296875 -22.273438 11.476562 -23.707031 15.6875 -24.25 L 27.484375 -25.703125 C 28.773438 -25.867188 29.71875 -26.328125 30.3125 -27.078125 C 30.90625 -27.835938 31.203125 -29.023438 31.203125 -30.640625 C 31.203125 -35.273438 27.890625 -37.59375 21.265625 -37.59375 C 18.347656 -37.59375 16.09375 -36.945312 14.5 -35.65625 C 12.914062 -34.363281 11.9375 -32.285156 11.5625 -29.421875 L 5.015625 -29.421875 C 5.117188 -33.953125 6.597656 -37.429688 9.453125 -39.859375 C 12.316406 -42.285156 16.523438 -43.5 22.078125 -43.5 C 26.816406 -43.5 30.679688 -42.5 33.671875 -40.5 C 36.660156 -38.507812 38.15625 -35.546875 38.15625 -31.609375 L 38.15625 -7.1875 C 38.15625 -6.488281 38.34375 -5.921875 38.71875 -5.484375 C 39.101562 -5.054688 39.695312 -4.84375 40.5 -4.84375 Z M 31.046875 -14.625 L 31.046875 -21.578125 C 30.398438 -21.046875 29.363281 -20.617188 27.9375 -20.296875 C 26.507812 -19.972656 23.285156 -19.457031 18.265625 -18.75 C 15.679688 -18.375 13.703125 -17.644531 12.328125 -16.5625 C 10.953125 -15.488281 10.265625 -13.957031 10.265625 -11.96875 C 10.265625 -7.113281 12.828125 -4.6875 17.953125 -4.6875 C 20.160156 -4.6875 22.273438 -5.128906 24.296875 -6.015625 C 26.316406 -6.910156 27.945312 -8.125 29.1875 -9.65625 C 30.425781 -11.195312 31.046875 -12.851562 31.046875 -14.625 Z M 31.046875 -14.625 "/></g></g></g><g fill="#ffffff" fill-opacity="1"><g transform="translate(388.323259, 60.494264)"><g/></g></g><g clip-path="url(#0fdd354820)"><g fill="#ffffff" fill-opacity="1"><g transform="translate(410.790838, 60.494264)"><g><path d="M 33.0625 -36.296875 L 33.234375 -36.296875 L 33.234375 -42.28125 L 39.9375 -42.28125 L 39.9375 16.734375 L 32.828125 16.734375 L 32.828125 -4.453125 L 32.65625 -4.453125 C 30.289062 -0.671875 26.4375 1.21875 21.09375 1.21875 C 17.113281 1.21875 13.75 0.15625 11 -1.96875 C 8.25 -4.101562 6.195312 -6.960938 4.84375 -10.546875 C 3.5 -14.128906 2.828125 -18.132812 2.828125 -22.5625 C 2.828125 -26.601562 3.539062 -30.195312 4.96875 -33.34375 C 6.394531 -36.5 8.441406 -38.976562 11.109375 -40.78125 C 13.785156 -42.59375 16.898438 -43.5 20.453125 -43.5 C 23.035156 -43.5 25.3125 -42.972656 27.28125 -41.921875 C 29.25 -40.867188 31.175781 -38.992188 33.0625 -36.296875 Z M 21.828125 -37.109375 C 18.054688 -37.109375 15.171875 -35.867188 13.171875 -33.390625 C 11.179688 -30.910156 10.1875 -27.003906 10.1875 -21.671875 C 10.1875 -16.390625 11.195312 -12.28125 13.21875 -9.34375 C 15.238281 -6.40625 18.023438 -4.9375 21.578125 -4.9375 C 24.921875 -4.9375 27.679688 -6.1875 29.859375 -8.6875 C 32.046875 -11.195312 33.140625 -14.660156 33.140625 -19.078125 C 33.140625 -31.097656 29.367188 -37.109375 21.828125 -37.109375 Z M 21.828125 -37.109375 "/></g></g></g></g><g fill="#ffffff" fill-opacity="1"><g transform="translate(455.725963, 60.494264)"><g><path d="M 20.78125 -4.9375 C 24.445312 -4.9375 27.300781 -6.226562 29.34375 -8.8125 C 31.394531 -11.394531 32.421875 -14.925781 32.421875 -19.40625 L 32.421875 -42.28125 L 39.53125 -42.28125 L 39.53125 0 L 32.828125 0 L 32.828125 -6.140625 L 32.65625 -6.3125 C 31.039062 -3.664062 29.207031 -1.75 27.15625 -0.5625 C 25.113281 0.625 22.472656 1.21875 19.234375 1.21875 C 15.035156 1.21875 11.695312 0.0703125 9.21875 -2.21875 C 6.738281 -4.507812 5.5 -7.648438 5.5 -11.640625 L 5.5 -42.28125 L 12.609375 -42.28125 L 12.609375 -13.90625 C 12.609375 -11.101562 13.304688 -8.90625 14.703125 -7.3125 C 16.109375 -5.726562 18.132812 -4.9375 20.78125 -4.9375 Z M 20.78125 -4.9375 "/></g></g></g><g fill="#ffffff" fill-opacity="1"><g transform="translate(500.661088, 60.494264)"><g><path d="M 23.125 -4.9375 C 24.957031 -4.9375 26.679688 -5.328125 28.296875 -6.109375 C 29.910156 -6.890625 31.226562 -7.925781 32.25 -9.21875 C 33.28125 -10.507812 33.875 -11.859375 34.03125 -13.265625 L 41.15625 -13.265625 C 40.125 -8.734375 38.046875 -5.1875 34.921875 -2.625 C 31.796875 -0.0625 27.675781 1.21875 22.5625 1.21875 C 18.457031 1.21875 14.953125 0.300781 12.046875 -1.53125 C 9.140625 -3.363281 6.941406 -5.882812 5.453125 -9.09375 C 3.972656 -12.300781 3.234375 -15.953125 3.234375 -20.046875 C 3.234375 -27.210938 5 -32.910156 8.53125 -37.140625 C 12.0625 -41.378906 17.0625 -43.5 23.53125 -43.5 C 29.34375 -43.5 33.828125 -41.34375 36.984375 -37.03125 C 40.140625 -32.71875 41.71875 -26.65625 41.71875 -18.84375 L 10.828125 -18.84375 C 10.828125 -14.3125 11.863281 -10.859375 13.9375 -8.484375 C 16.019531 -6.117188 19.082031 -4.9375 23.125 -4.9375 Z M 22.5625 -37.109375 C 20.507812 -37.109375 18.59375 -36.539062 16.8125 -35.40625 C 15.03125 -34.28125 13.585938 -32.742188 12.484375 -30.796875 C 11.378906 -28.859375 10.828125 -26.757812 10.828125 -24.5 L 34.359375 -24.5 C 33.710938 -32.90625 29.78125 -37.109375 22.5625 -37.109375 Z M 22.5625 -37.109375 "/></g></g></g><g fill="#ffffff" fill-opacity="1"><g transform="translate(545.596213, 60.494264)"><g><path d="M 36.140625 -36.625 C 38.398438 -39.320312 40.472656 -41.140625 42.359375 -42.078125 C 44.242188 -43.023438 46.375 -43.5 48.75 -43.5 C 52.789062 -43.5 56.035156 -42.242188 58.484375 -39.734375 C 60.941406 -37.222656 62.171875 -33.84375 62.171875 -29.59375 L 62.171875 0 L 55.046875 0 L 55.046875 -27.15625 C 55.046875 -30.5 54.441406 -32.992188 53.234375 -34.640625 C 52.023438 -36.285156 50.019531 -37.109375 47.21875 -37.109375 C 45.382812 -37.109375 43.710938 -36.582031 42.203125 -35.53125 C 40.691406 -34.476562 39.488281 -33.078125 38.59375 -31.328125 C 37.707031 -29.578125 37.265625 -27.648438 37.265625 -25.546875 L 37.265625 0 L 30.15625 0 L 30.15625 -29.265625 C 30.15625 -31.691406 29.570312 -33.601562 28.40625 -35 C 27.25 -36.40625 25.625 -37.109375 23.53125 -37.109375 C 20.1875 -37.109375 17.488281 -35.851562 15.4375 -33.34375 C 13.394531 -30.84375 12.375 -27.539062 12.375 -23.4375 L 12.375 0 L 5.25 0 L 5.25 -42.28125 L 11.96875 -42.28125 L 11.96875 -36.296875 L 12.125 -36.296875 C 15.363281 -41.097656 19.625 -43.5 24.90625 -43.5 C 27.320312 -43.5 29.515625 -42.941406 31.484375 -41.828125 C 33.453125 -40.722656 35.003906 -38.988281 36.140625 -36.625 Z M 36.140625 -36.625 "/></g></g></g><g fill="#ffffff" fill-opacity="1"><g transform="translate(612.918098, 60.494264)"><g/></g></g><g fill="#ffffff" fill-opacity="1"><g transform="translate(635.38571, 60.494264)"><g><path d="M 32.578125 -25.953125 C 32.578125 -29.828125 31.890625 -32.65625 30.515625 -34.4375 C 29.140625 -36.21875 26.835938 -37.109375 23.609375 -37.109375 C 20.265625 -37.109375 17.554688 -35.851562 15.484375 -33.34375 C 13.410156 -30.84375 12.375 -27.539062 12.375 -23.4375 L 12.375 0 L 5.25 0 L 5.25 -42.28125 L 11.96875 -42.28125 L 11.96875 -36.296875 L 12.125 -36.296875 C 13.957031 -38.828125 15.925781 -40.660156 18.03125 -41.796875 C 20.132812 -42.929688 22.425781 -43.5 24.90625 -43.5 C 29.59375 -43.5 33.226562 -42.242188 35.8125 -39.734375 C 38.394531 -37.222656 39.6875 -33.679688 39.6875 -29.109375 L 39.6875 0 L 32.578125 0 Z M 32.578125 -25.953125 "/></g></g></g><g fill="#ffffff" fill-opacity="1"><g transform="translate(680.320802, 60.494264)"><g><path d="M 40.5 -4.84375 C 41.257812 -4.84375 42.039062 -4.953125 42.84375 -5.171875 L 42.84375 0 C 41.226562 0.539062 39.910156 0.8125 38.890625 0.8125 C 36.566406 0.8125 34.769531 0.3125 33.5 -0.6875 C 32.238281 -1.6875 31.554688 -3.34375 31.453125 -5.65625 C 27.410156 -1.070312 22.34375 1.21875 16.25 1.21875 C 12.3125 1.21875 9.101562 0.0859375 6.625 -2.171875 C 4.144531 -4.441406 2.90625 -7.382812 2.90625 -11 C 2.90625 -14.65625 3.984375 -17.640625 6.140625 -19.953125 C 8.296875 -22.273438 11.476562 -23.707031 15.6875 -24.25 L 27.484375 -25.703125 C 28.773438 -25.867188 29.71875 -26.328125 30.3125 -27.078125 C 30.90625 -27.835938 31.203125 -29.023438 31.203125 -30.640625 C 31.203125 -35.273438 27.890625 -37.59375 21.265625 -37.59375 C 18.347656 -37.59375 16.09375 -36.945312 14.5 -35.65625 C 12.914062 -34.363281 11.9375 -32.285156 11.5625 -29.421875 L 5.015625 -29.421875 C 5.117188 -33.953125 6.597656 -37.429688 9.453125 -39.859375 C 12.316406 -42.285156 16.523438 -43.5 22.078125 -43.5 C 26.816406 -43.5 30.679688 -42.5 33.671875 -40.5 C 36.660156 -38.507812 38.15625 -35.546875 38.15625 -31.609375 L 38.15625 -7.1875 C 38.15625 -6.488281 38.34375 -5.921875 38.71875 -5.484375 C 39.101562 -5.054688 39.695312 -4.84375 40.5 -4.84375 Z M 31.046875 -14.625 L 31.046875 -21.578125 C 30.398438 -21.046875 29.363281 -20.617188 27.9375 -20.296875 C 26.507812 -19.972656 23.285156 -19.457031 18.265625 -18.75 C 15.679688 -18.375 13.703125 -17.644531 12.328125 -16.5625 C 10.953125 -15.488281 10.265625 -13.957031 10.265625 -11.96875 C 10.265625 -7.113281 12.828125 -4.6875 17.953125 -4.6875 C 20.160156 -4.6875 22.273438 -5.128906 24.296875 -6.015625 C 26.316406 -6.910156 27.945312 -8.125 29.1875 -9.65625 C 30.425781 -11.195312 31.046875 -12.851562 31.046875 -14.625 Z M 28.203125 -49.5625 C 27.335938 -49.5625 26.445312 -49.679688 25.53125 -49.921875 C 24.625 -50.160156 23.441406 -50.550781 21.984375 -51.09375 C 20.691406 -51.582031 19.585938 -51.945312 18.671875 -52.1875 C 17.753906 -52.425781 16.941406 -52.546875 16.234375 -52.546875 C 15.265625 -52.546875 14.5 -52.222656 13.9375 -51.578125 C 13.375 -50.929688 12.929688 -50.066406 12.609375 -48.984375 L 8.71875 -48.984375 C 9.101562 -51.898438 10.035156 -54.070312 11.515625 -55.5 C 12.992188 -56.925781 14.921875 -57.640625 17.296875 -57.640625 C 18.265625 -57.640625 19.273438 -57.488281 20.328125 -57.1875 C 21.378906 -56.894531 22.550781 -56.476562 23.84375 -55.9375 C 25.882812 -55.082031 27.335938 -54.65625 28.203125 -54.65625 C 29.390625 -54.65625 30.304688 -54.945312 30.953125 -55.53125 C 31.597656 -56.125 32.03125 -57.070312 32.25 -58.375 L 36.296875 -58.375 C 35.972656 -55.78125 35.09375 -53.660156 33.65625 -52.015625 C 32.226562 -50.378906 30.410156 -49.5625 28.203125 -49.5625 Z M 28.203125 -49.5625 "/></g></g></g><g fill="#ffffff" fill-opacity="1"><g transform="translate(725.255895, 60.494264)"><g><path d="M 22.5625 1.125 C 18.457031 1.125 14.910156 0.128906 11.921875 -1.859375 C 8.929688 -3.847656 6.664062 -6.523438 5.125 -9.890625 C 3.59375 -13.265625 2.828125 -17.03125 2.828125 -21.1875 C 2.828125 -25.4375 3.617188 -29.242188 5.203125 -32.609375 C 6.796875 -35.984375 9.070312 -38.640625 12.03125 -40.578125 C 15 -42.523438 18.476562 -43.5 22.46875 -43.5 C 26.570312 -43.5 30.101562 -42.5 33.0625 -40.5 C 36.03125 -38.507812 38.28125 -35.816406 39.8125 -32.421875 C 41.351562 -29.023438 42.125 -25.28125 42.125 -21.1875 C 42.125 -17.03125 41.34375 -13.238281 39.78125 -9.8125 C 38.21875 -6.394531 35.96875 -3.71875 33.03125 -1.78125 C 30.09375 0.15625 26.601562 1.125 22.5625 1.125 Z M 34.765625 -20.9375 C 34.765625 -25.738281 33.710938 -29.671875 31.609375 -32.734375 C 29.503906 -35.804688 26.429688 -37.34375 22.390625 -37.34375 C 18.515625 -37.34375 15.507812 -35.832031 13.375 -32.8125 C 11.25 -29.800781 10.1875 -25.925781 10.1875 -21.1875 C 10.1875 -16.550781 11.25 -12.695312 13.375 -9.625 C 15.507812 -6.550781 18.539062 -5.015625 22.46875 -5.015625 C 26.457031 -5.015625 29.503906 -6.550781 31.609375 -9.625 C 33.710938 -12.695312 34.765625 -16.46875 34.765625 -20.9375 Z M 34.765625 -20.9375 "/></g></g></g><g fill="#ffffff" fill-opacity="1"><g transform="translate(770.191052, 60.494264)"><g/></g></g><g clip-path="url(#a45726715f)"><g fill="#ffffff" fill-opacity="1"><g transform="translate(792.658663, 60.494264)"><g><path d="M 41.796875 -22.5625 C 41.796875 -18.132812 41.109375 -14.128906 39.734375 -10.546875 C 38.359375 -6.960938 36.28125 -4.101562 33.5 -1.96875 C 30.726562 0.15625 27.347656 1.21875 23.359375 1.21875 C 20.609375 1.21875 18.289062 0.691406 16.40625 -0.359375 C 14.519531 -1.410156 13.039062 -2.773438 11.96875 -4.453125 L 11.796875 -4.453125 L 11.796875 16.734375 L 4.6875 16.734375 L 4.6875 -42.28125 L 11.40625 -42.28125 L 11.40625 -36.296875 L 11.5625 -36.296875 C 13.445312 -38.992188 15.375 -40.867188 17.34375 -41.921875 C 19.3125 -42.972656 21.585938 -43.5 24.171875 -43.5 C 27.734375 -43.5 30.847656 -42.59375 33.515625 -40.78125 C 36.179688 -38.976562 38.226562 -36.5 39.65625 -33.34375 C 41.082031 -30.195312 41.796875 -26.601562 41.796875 -22.5625 Z M 23.046875 -4.9375 C 26.597656 -4.9375 29.382812 -6.40625 31.40625 -9.34375 C 33.425781 -12.28125 34.4375 -16.332031 34.4375 -21.5 C 34.4375 -27 33.425781 -30.972656 31.40625 -33.421875 C 29.382812 -35.878906 26.515625 -37.109375 22.796875 -37.109375 C 15.253906 -37.109375 11.484375 -31.097656 11.484375 -19.078125 C 11.484375 -14.660156 12.570312 -11.195312 14.75 -8.6875 C 16.9375 -6.1875 19.703125 -4.9375 23.046875 -4.9375 Z M 23.046875 -4.9375 "/></g></g></g></g><g fill="#ffffff" fill-opacity="1"><g transform="translate(837.593756, 60.494264)"><g><path d="M 40.5 -4.84375 C 41.257812 -4.84375 42.039062 -4.953125 42.84375 -5.171875 L 42.84375 0 C 41.226562 0.539062 39.910156 0.8125 38.890625 0.8125 C 36.566406 0.8125 34.769531 0.3125 33.5 -0.6875 C 32.238281 -1.6875 31.554688 -3.34375 31.453125 -5.65625 C 27.410156 -1.070312 22.34375 1.21875 16.25 1.21875 C 12.3125 1.21875 9.101562 0.0859375 6.625 -2.171875 C 4.144531 -4.441406 2.90625 -7.382812 2.90625 -11 C 2.90625 -14.65625 3.984375 -17.640625 6.140625 -19.953125 C 8.296875 -22.273438 11.476562 -23.707031 15.6875 -24.25 L 27.484375 -25.703125 C 28.773438 -25.867188 29.71875 -26.328125 30.3125 -27.078125 C 30.90625 -27.835938 31.203125 -29.023438 31.203125 -30.640625 C 31.203125 -35.273438 27.890625 -37.59375 21.265625 -37.59375 C 18.347656 -37.59375 16.09375 -36.945312 14.5 -35.65625 C 12.914062 -34.363281 11.9375 -32.285156 11.5625 -29.421875 L 5.015625 -29.421875 C 5.117188 -33.953125 6.597656 -37.429688 9.453125 -39.859375 C 12.316406 -42.285156 16.523438 -43.5 22.078125 -43.5 C 26.816406 -43.5 30.679688 -42.5 33.671875 -40.5 C 36.660156 -38.507812 38.15625 -35.546875 38.15625 -31.609375 L 38.15625 -7.1875 C 38.15625 -6.488281 38.34375 -5.921875 38.71875 -5.484375 C 39.101562 -5.054688 39.695312 -4.84375 40.5 -4.84375 Z M 31.046875 -14.625 L 31.046875 -21.578125 C 30.398438 -21.046875 29.363281 -20.617188 27.9375 -20.296875 C 26.507812 -19.972656 23.285156 -19.457031 18.265625 -18.75 C 15.679688 -18.375 13.703125 -17.644531 12.328125 -16.5625 C 10.953125 -15.488281 10.265625 -13.957031 10.265625 -11.96875 C 10.265625 -7.113281 12.828125 -4.6875 17.953125 -4.6875 C 20.160156 -4.6875 22.273438 -5.128906 24.296875 -6.015625 C 26.316406 -6.910156 27.945312 -8.125 29.1875 -9.65625 C 30.425781 -11.195312 31.046875 -12.851562 31.046875 -14.625 Z M 31.046875 -14.625 "/></g></g></g><g fill="#ffffff" fill-opacity="1"><g transform="translate(882.528849, 60.494264)"><g><path d="M 13.34375 -24.171875 L 13.34375 0 L 6.21875 0 L 6.21875 -42.28125 L 12.9375 -42.28125 L 12.9375 -35.25 L 13.09375 -35.25 C 14.601562 -37.882812 16.3125 -39.914062 18.21875 -41.34375 C 20.132812 -42.78125 22.390625 -43.5 24.984375 -43.5 C 25.785156 -43.5 26.40625 -43.414062 26.84375 -43.25 L 26.84375 -35.890625 L 24.09375 -35.890625 C 22.3125 -35.890625 20.597656 -35.472656 18.953125 -34.640625 C 17.304688 -33.804688 15.957031 -32.515625 14.90625 -30.765625 C 13.863281 -29.015625 13.34375 -26.816406 13.34375 -24.171875 Z M 13.34375 -24.171875 "/></g></g></g><g fill="#ffffff" fill-opacity="1"><g transform="translate(909.441492, 60.494264)"><g><path d="M 40.5 -4.84375 C 41.257812 -4.84375 42.039062 -4.953125 42.84375 -5.171875 L 42.84375 0 C 41.226562 0.539062 39.910156 0.8125 38.890625 0.8125 C 36.566406 0.8125 34.769531 0.3125 33.5 -0.6875 C 32.238281 -1.6875 31.554688 -3.34375 31.453125 -5.65625 C 27.410156 -1.070312 22.34375 1.21875 16.25 1.21875 C 12.3125 1.21875 9.101562 0.0859375 6.625 -2.171875 C 4.144531 -4.441406 2.90625 -7.382812 2.90625 -11 C 2.90625 -14.65625 3.984375 -17.640625 6.140625 -19.953125 C 8.296875 -22.273438 11.476562 -23.707031 15.6875 -24.25 L 27.484375 -25.703125 C 28.773438 -25.867188 29.71875 -26.328125 30.3125 -27.078125 C 30.90625 -27.835938 31.203125 -29.023438 31.203125 -30.640625 C 31.203125 -35.273438 27.890625 -37.59375 21.265625 -37.59375 C 18.347656 -37.59375 16.09375 -36.945312 14.5 -35.65625 C 12.914062 -34.363281 11.9375 -32.285156 11.5625 -29.421875 L 5.015625 -29.421875 C 5.117188 -33.953125 6.597656 -37.429688 9.453125 -39.859375 C 12.316406 -42.285156 16.523438 -43.5 22.078125 -43.5 C 26.816406 -43.5 30.679688 -42.5 33.671875 -40.5 C 36.660156 -38.507812 38.15625 -35.546875 38.15625 -31.609375 L 38.15625 -7.1875 C 38.15625 -6.488281 38.34375 -5.921875 38.71875 -5.484375 C 39.101562 -5.054688 39.695312 -4.84375 40.5 -4.84375 Z M 31.046875 -14.625 L 31.046875 -21.578125 C 30.398438 -21.046875 29.363281 -20.617188 27.9375 -20.296875 C 26.507812 -19.972656 23.285156 -19.457031 18.265625 -18.75 C 15.679688 -18.375 13.703125 -17.644531 12.328125 -16.5625 C 10.953125 -15.488281 10.265625 -13.957031 10.265625 -11.96875 C 10.265625 -7.113281 12.828125 -4.6875 17.953125 -4.6875 C 20.160156 -4.6875 22.273438 -5.128906 24.296875 -6.015625 C 26.316406 -6.910156 27.945312 -8.125 29.1875 -9.65625 C 30.425781 -11.195312 31.046875 -12.851562 31.046875 -14.625 Z M 31.046875 -14.625 "/></g></g></g><g fill="#ffffff" fill-opacity="1"><g transform="translate(954.376585, 60.494264)"><g><path d="M 13.171875 -13.828125 L 9.21875 -13.828125 L 7.28125 -38.890625 L 7.28125 -58.046875 L 15.125 -58.046875 L 15.125 -38.890625 Z M 7.28125 0 L 7.28125 -8.25 L 15.125 -8.25 L 15.125 0 Z M 7.28125 0 "/></g></g></g></g></g></g><g clip-path="url(#51e0b34f83)"><g transform="matrix(1, 0, 0, 1, 457, 100)"><g clip-path="url(#fbaa0d2d47)"><g fill="#ff9500" fill-opacity="1"><g transform="translate(1.778746, 114.33502)"><g><path d="M 53.5 -90.609375 L 48.59375 -67.453125 L 102.265625 -67.453125 L 98.125 -47.984375 L 44.453125 -47.984375 L 38.328125 -19.46875 L 99.34375 -19.46875 L 95.203125 0 L 11.65625 0 L 35.109375 -110.078125 L 116.0625 -110.078125 L 111.921875 -90.609375 Z M 53.5 -90.609375 "/></g></g></g><g fill="#ff9500" fill-opacity="1"><g transform="translate(104.02248, 114.33502)"><g><path d="M 94.75 -110.078125 L 121.265625 -110.078125 L 76.34375 -57.1875 L 100.109375 0 L 72.0625 0 L 59.171875 -37.5625 L 28.96875 0 L 2.140625 0 L 49.671875 -56.265625 L 27.59375 -110.078125 L 55.046875 -110.078125 L 67 -74.515625 Z M 94.75 -110.078125 "/></g></g></g><g fill="#ff9500" fill-opacity="1"><g transform="translate(206.266213, 114.33502)"><g><path d="M 113.140625 -84.625 C 113.140625 -76.863281 111.273438 -69.53125 107.546875 -62.625 C 103.816406 -55.726562 98.65625 -50.179688 92.0625 -45.984375 C 85.46875 -41.796875 78.132812 -39.703125 70.0625 -39.703125 L 43.078125 -39.703125 L 34.65625 0 L 11.65625 0 L 35.109375 -110.078125 L 86.015625 -110.078125 C 94.285156 -110.078125 100.875 -107.878906 105.78125 -103.484375 C 110.6875 -99.085938 113.140625 -92.800781 113.140625 -84.625 Z M 68.53125 -58.71875 C 75.882812 -58.71875 81.25 -60.914062 84.625 -65.3125 C 88 -69.707031 89.6875 -74.765625 89.6875 -80.484375 C 89.6875 -84.367188 88.332031 -87.101562 85.625 -88.6875 C 82.914062 -90.269531 78.703125 -91.0625 72.984375 -91.0625 L 53.96875 -91.0625 L 47.0625 -58.71875 Z M 68.53125 -58.71875 "/></g></g></g><g fill="#ff9500" fill-opacity="1"><g transform="translate(308.509947, 114.33502)"><g><path d="M 119.28125 -86.15625 C 119.28125 -78.59375 117.132812 -71.664062 112.84375 -65.375 C 108.550781 -59.09375 102.976562 -54.878906 96.125 -52.734375 C 100.21875 -50.796875 102.875 -48.828125 104.09375 -46.828125 C 105.320312 -44.835938 105.9375 -42.003906 105.9375 -38.328125 C 105.9375 -35.265625 105.015625 -29.234375 103.171875 -20.234375 C 101.953125 -13.078125 101.34375 -9.144531 101.34375 -8.4375 C 101.34375 -6.894531 101.570312 -5.691406 102.03125 -4.828125 C 102.488281 -3.960938 103.28125 -3.320312 104.40625 -2.90625 L 103.796875 0 L 78.34375 0 L 78.1875 -3.984375 C 78.082031 -6.234375 78.335938 -9.222656 78.953125 -12.953125 C 79.566406 -16.679688 80.179688 -20.234375 80.796875 -23.609375 C 81.921875 -29.023438 82.484375 -32.398438 82.484375 -33.734375 C 82.484375 -37.003906 81.359375 -39.378906 79.109375 -40.859375 C 76.859375 -42.335938 73.128906 -43.078125 67.921875 -43.078125 L 43.390625 -43.078125 L 34.1875 0 L 11.65625 0 L 35.109375 -110.078125 L 91.21875 -110.078125 C 100.21875 -110.078125 107.144531 -107.957031 112 -103.71875 C 116.851562 -99.476562 119.28125 -93.625 119.28125 -86.15625 Z M 74.8125 -61.625 C 81.96875 -61.625 87.234375 -63.3125 90.609375 -66.6875 C 93.984375 -70.0625 95.671875 -74.710938 95.671875 -80.640625 C 95.671875 -83.910156 94.519531 -86.460938 92.21875 -88.296875 C 89.914062 -90.140625 86.769531 -91.0625 82.78125 -91.0625 L 53.5 -91.0625 L 47.21875 -61.625 Z M 74.8125 -61.625 "/></g></g></g><g fill="#ff9500" fill-opacity="1"><g transform="translate(419.184575, 114.33502)"><g><path d="M 53.5 -90.609375 L 48.59375 -67.453125 L 102.265625 -67.453125 L 98.125 -47.984375 L 44.453125 -47.984375 L 38.328125 -19.46875 L 99.34375 -19.46875 L 95.203125 0 L 11.65625 0 L 35.109375 -110.078125 L 116.0625 -110.078125 L 111.921875 -90.609375 Z M 53.5 -90.609375 "/></g></g></g><g fill="#ff9500" fill-opacity="1"><g transform="translate(521.428308, 114.33502)"><g><path d="M 109.3125 -77.421875 L 87.234375 -77.421875 L 87.234375 -80.640625 C 87.234375 -84.929688 85.597656 -88.226562 82.328125 -90.53125 C 79.054688 -92.832031 74.304688 -93.984375 68.078125 -93.984375 C 62.046875 -93.984375 56.859375 -92.578125 52.515625 -89.765625 C 48.171875 -86.953125 46 -83.09375 46 -78.1875 C 46 -75.832031 46.789062 -73.988281 48.375 -72.65625 C 49.957031 -71.332031 52.765625 -70.082031 56.796875 -68.90625 C 60.835938 -67.738281 67.914062 -65.925781 78.03125 -63.46875 C 85.59375 -61.632812 91.34375 -59.410156 95.28125 -56.796875 C 99.21875 -54.191406 101.695312 -51.5625 102.71875 -48.90625 C 103.738281 -46.25 104.25 -43.335938 104.25 -40.171875 C 104.25 -32.503906 102.128906 -25.375 97.890625 -18.78125 C 93.648438 -12.1875 87.539062 -6.921875 79.5625 -2.984375 C 71.59375 0.941406 62.394531 2.90625 51.96875 2.90625 C 38.988281 2.90625 29.125 0.429688 22.375 -4.515625 C 15.632812 -9.472656 12.265625 -16.453125 12.265625 -25.453125 C 12.265625 -28.210938 12.570312 -31.019531 13.1875 -33.875 L 35.109375 -33.875 C 34.898438 -32.039062 34.796875 -30.664062 34.796875 -29.75 C 34.796875 -25.351562 36.507812 -21.976562 39.9375 -19.625 C 43.363281 -17.269531 48.242188 -16.09375 54.578125 -16.09375 C 63.472656 -16.09375 70.09375 -17.570312 74.4375 -20.53125 C 78.78125 -23.5 80.953125 -27.539062 80.953125 -32.65625 C 80.953125 -37.15625 77.21875 -40.375 69.75 -42.3125 L 61.015625 -44.453125 C 51.097656 -46.910156 43.765625 -49.007812 39.015625 -50.75 C 34.265625 -52.488281 30.484375 -54.863281 27.671875 -57.875 C 24.859375 -60.882812 23.453125 -65.050781 23.453125 -70.375 C 23.453125 -77.007812 25.1875 -83.597656 28.65625 -90.140625 C 32.132812 -96.679688 37.628906 -102.125 45.140625 -106.46875 C 52.660156 -110.8125 62.039062 -112.984375 73.28125 -112.984375 C 85.039062 -112.984375 94.113281 -110.476562 100.5 -105.46875 C 106.882812 -100.46875 110.078125 -93.316406 110.078125 -84.015625 C 110.078125 -82.171875 109.820312 -79.972656 109.3125 -77.421875 Z M 109.3125 -77.421875 "/></g></g></g><g fill="#ff9500" fill-opacity="1"><g transform="translate(623.672042, 114.33502)"><g><path d="M 109.3125 -77.421875 L 87.234375 -77.421875 L 87.234375 -80.640625 C 87.234375 -84.929688 85.597656 -88.226562 82.328125 -90.53125 C 79.054688 -92.832031 74.304688 -93.984375 68.078125 -93.984375 C 62.046875 -93.984375 56.859375 -92.578125 52.515625 -89.765625 C 48.171875 -86.953125 46 -83.09375 46 -78.1875 C 46 -75.832031 46.789062 -73.988281 48.375 -72.65625 C 49.957031 -71.332031 52.765625 -70.082031 56.796875 -68.90625 C 60.835938 -67.738281 67.914062 -65.925781 78.03125 -63.46875 C 85.59375 -61.632812 91.34375 -59.410156 95.28125 -56.796875 C 99.21875 -54.191406 101.695312 -51.5625 102.71875 -48.90625 C 103.738281 -46.25 104.25 -43.335938 104.25 -40.171875 C 104.25 -32.503906 102.128906 -25.375 97.890625 -18.78125 C 93.648438 -12.1875 87.539062 -6.921875 79.5625 -2.984375 C 71.59375 0.941406 62.394531 2.90625 51.96875 2.90625 C 38.988281 2.90625 29.125 0.429688 22.375 -4.515625 C 15.632812 -9.472656 12.265625 -16.453125 12.265625 -25.453125 C 12.265625 -28.210938 12.570312 -31.019531 13.1875 -33.875 L 35.109375 -33.875 C 34.898438 -32.039062 34.796875 -30.664062 34.796875 -29.75 C 34.796875 -25.351562 36.507812 -21.976562 39.9375 -19.625 C 43.363281 -17.269531 48.242188 -16.09375 54.578125 -16.09375 C 63.472656 -16.09375 70.09375 -17.570312 74.4375 -20.53125 C 78.78125 -23.5 80.953125 -27.539062 80.953125 -32.65625 C 80.953125 -37.15625 77.21875 -40.375 69.75 -42.3125 L 61.015625 -44.453125 C 51.097656 -46.910156 43.765625 -49.007812 39.015625 -50.75 C 34.265625 -52.488281 30.484375 -54.863281 27.671875 -57.875 C 24.859375 -60.882812 23.453125 -65.050781 23.453125 -70.375 C 23.453125 -77.007812 25.1875 -83.597656 28.65625 -90.140625 C 32.132812 -96.679688 37.628906 -102.125 45.140625 -106.46875 C 52.660156 -110.8125 62.039062 -112.984375 73.28125 -112.984375 C 85.039062 -112.984375 94.113281 -110.476562 100.5 -105.46875 C 106.882812 -100.46875 110.078125 -93.316406 110.078125 -84.015625 C 110.078125 -82.171875 109.820312 -79.972656 109.3125 -77.421875 Z M 109.3125 -77.421875 "/></g></g></g></g></g></g><g clip-path="url(#163d60ec61)"><g transform="matrix(1, 0, 0, 1, 0, 103)"><g clip-path="url(#e6229da83b)"><g fill="#ffffff" fill-opacity="1"><g transform="translate(1.085908, 113.131011)"><g><path d="M 44.4375 -56.359375 L 44.75 -56.359375 L 44.75 -112.09375 L 69.234375 -112.09375 L 69.234375 0 L 44.75 0 L 28.421875 -62.640625 L 27.953125 -62.640625 L 27.953125 0 L 3.453125 0 L 3.453125 -112.09375 L 27.953125 -112.09375 Z M 44.4375 -56.359375 "/></g></g></g><g fill="#ffffff" fill-opacity="1"><g transform="translate(78.642986, 113.131011)"><g><path d="M 67.828125 -87.140625 L 67.828125 -71.90625 C 67.828125 -63.007812 65.785156 -56.414062 61.703125 -52.125 C 57.617188 -47.832031 51.914062 -45.6875 44.59375 -45.6875 L 31.40625 -45.6875 L 31.40625 0 L 3.453125 0 L 3.453125 -112.09375 L 41.921875 -112.09375 C 50.191406 -112.09375 56.578125 -109.921875 61.078125 -105.578125 C 65.578125 -101.234375 67.828125 -95.085938 67.828125 -87.140625 Z M 43.328125 -70.96875 L 43.328125 -86.828125 C 43.328125 -91.117188 41.128906 -93.265625 36.734375 -93.265625 L 31.40625 -93.265625 L 31.40625 -64.53125 L 36.734375 -64.53125 C 41.128906 -64.53125 43.328125 -66.675781 43.328125 -70.96875 Z M 43.328125 -70.96875 "/></g></g></g></g></g></g><g clip-path="url(#3b31fd0381)"><g transform="matrix(1, 0, 0, 1, 118, 0.000000000000056843)"><g clip-path="url(#6d252502c5)"><g fill="#ffffff" fill-opacity="1"><g transform="translate(2.282191, 215.967482)"><g><path d="M 21.78125 1.234375 C 18.21875 1.234375 15.203125 0 12.734375 -2.46875 C 10.273438 -4.9375 9.046875 -7.953125 9.046875 -11.515625 C 9.046875 -15.078125 10.273438 -18.085938 12.734375 -20.546875 C 15.203125 -23.015625 18.21875 -24.25 21.78125 -24.25 C 25.207031 -24.25 28.117188 -23.015625 30.515625 -20.546875 C 32.910156 -18.085938 34.109375 -15.078125 34.109375 -11.515625 C 34.109375 -7.953125 32.910156 -4.9375 30.515625 -2.46875 C 28.117188 0 25.207031 1.234375 21.78125 1.234375 Z M 21.78125 1.234375 "/></g></g></g></g></g></g><g transform="matrix(1, 0, 0, 1, 170, 101)"><g clip-path="url(#d36de37140)"><g clip-path="url(#bb1d8d9035)"><g fill="#ffffff" fill-opacity="1"><g transform="translate(1.698986, 112.815562)"><g><path d="M 32.34375 -71.4375 L 43.328125 -71.4375 L 43.328125 -112.09375 L 72.21875 -112.09375 L 72.21875 0 L 43.328125 0 L 43.328125 -46.9375 L 32.34375 -46.9375 L 32.34375 0 L 3.453125 0 L 3.453125 -112.09375 L 32.34375 -112.09375 Z M 32.34375 -71.4375 "/></g></g></g></g><g clip-path="url(#93c131fea8)"><g fill="#ffffff" fill-opacity="1"><g transform="translate(82.239019, 112.815562)"><g><path d="M 71.90625 0 L 43.015625 0 L 41.609375 -19.78125 L 31.09375 -19.78125 L 29.671875 0 L 0.78125 0 L 14.921875 -112.09375 L 56.515625 -112.09375 Z M 31.09375 -39.5625 L 41.140625 -39.5625 L 36.109375 -92.3125 L 35.796875 -92.3125 Z M 31.09375 -39.5625 "/></g></g></g></g><g clip-path="url(#259734eaa5)"><g fill="#ffffff" fill-opacity="1"><g transform="translate(159.796097, 112.815562)"><g><path d="M 31.875 0 L 2.984375 0 L 2.984375 -112.09375 L 31.875 -112.09375 Z M 31.875 0 "/></g></g></g></g><g clip-path="url(#6e151ad43b)"><g fill="#ffffff" fill-opacity="1"><g transform="translate(199.516738, 112.815562)"><g><path d="M 68.140625 -89.96875 L 68.140625 -78.65625 C 68.140625 -72.476562 66.722656 -67.84375 63.890625 -64.75 C 61.066406 -61.664062 56.832031 -59.914062 51.1875 -59.5 L 51.1875 -59.1875 C 57.351562 -58.769531 61.898438 -56.988281 64.828125 -53.84375 C 67.765625 -50.707031 69.234375 -46.050781 69.234375 -39.875 L 69.234375 0 L 42.234375 0 L 42.234375 -43.015625 C 42.234375 -49.191406 39.722656 -52.28125 34.703125 -52.28125 C 33.546875 -52.28125 32.445312 -52.125 31.40625 -51.8125 L 31.40625 0 L 3.453125 0 L 3.453125 -112.09375 L 37.203125 -112.09375 C 43.898438 -112.09375 49.394531 -111.59375 53.6875 -110.59375 C 57.976562 -109.601562 61.457031 -107.507812 64.125 -104.3125 C 66.800781 -101.125 68.140625 -96.34375 68.140625 -89.96875 Z M 33.4375 -69.234375 C 36.789062 -69.234375 39.09375 -69.992188 40.34375 -71.515625 C 41.601562 -73.035156 42.234375 -74.785156 42.234375 -76.765625 L 42.234375 -86.65625 C 42.234375 -88.539062 41.601562 -90.269531 40.34375 -91.84375 C 39.09375 -93.414062 36.84375 -94.203125 33.59375 -94.203125 L 31.40625 -94.203125 L 31.40625 -69.234375 Z M 33.4375 -69.234375 "/></g></g></g></g></g></g></g></g></svg>